Coordinates
version=1
nRows=22
nColumns=24
inDegrees=yes

Units are S.I. units (second, meters, Newtons, ...)
Angles are in degrees.

endheader
time	pelvis_tilt	pelvis_list	pelvis_rotation	pelvis_tx	pelvis_ty	pelvis_tz	hip_flexion_r	hip_adduction_r	hip_rotation_r	knee_angle_r	ankle_angle_r	subtalar_angle_r	mtp_angle_r	hip_flexion_l	hip_adduction_l	hip_rotation_l	knee_angle_l	ankle_angle_l	subtalar_angle_l	mtp_angle_l	lumbar_extension	lumbar_bending	lumbar_rotation
      2.69500000	     -9.47381717	     -5.85799354	      6.24332767	     -1.69871310	     -0.03754316	      0.61045324	     31.81402211	      2.72327042	     -2.39302246	    -34.54100130	      2.64710340	     -5.09189670	     14.47204845	     13.59773599	     -5.41539299	      2.89634126	    -58.89744657	    -25.30304597	      1.79307047	     21.22811120	      8.43327312	     13.39273759	     -9.62934684
      2.70000000	     -9.51397471	     -5.87604024	      6.08728436	     -1.69173785	     -0.03661916	      0.61087504	     31.27275231	      2.86608353	     -2.38363567	    -34.29560455	      3.06415881	     -4.88029389	     14.47562185	     14.71695593	     -5.36867781	      2.61669425	    -60.25063807	    -24.59445566	      1.79727019	     22.96832239	      8.42474768	     13.47559690	     -9.23836612
      2.70500000	     -9.41715334	     -5.84590895	      5.93529655	     -1.68483820	     -0.03549208	      0.61130801	     30.56824289	      2.98118471	     -2.32631576	    -34.02070353	      3.45463731	     -4.62405989	     14.60646764	     15.67257096	     -5.29352623	      2.33889282	    -61.53500191	    -23.66852847	      2.01677406	     24.23463685	      8.24668561	     13.51569191	     -8.88676281
      2.71000000	     -9.37314242	     -5.89243021	      5.82375545	     -1.67785829	     -0.03430837	      0.61172739	     29.87718817	      3.15730985	     -2.31771445	    -33.65337300	      3.74587018	     -4.52522390	     14.64230427	     16.67945067	     -5.29680810	      2.12710681	    -62.63880338	    -23.35418102	      1.88350726	     26.62477493	      8.17192206	     13.61698530	     -8.52149597
      2.71500000	     -9.26960960	     -5.87774749	      5.67902894	     -1.67096532	     -0.03307891	      0.61207038	     29.11868196	      3.27674309	     -2.26084427	    -33.28716058	      4.09244843	     -4.26626398	     14.74771000	     17.63113242	     -5.24805052	      1.81250102	    -63.77679877	    -22.61140098	      1.76040723	     27.19892222	      8.00475791	     13.67341275	     -8.14960447
      2.72000000	     -9.22776136	     -5.88537222	      5.53986538	     -1.66400710	     -0.03186589	      0.61261454	     28.39942192	      3.44714792	     -2.14791179	    -32.87151847	      4.35694242	     -4.24548297	     14.61909469	     18.61590929	     -5.23794403	      1.58582698	    -64.73682571	    -22.27798325	      1.64037673	     28.86334496	      7.93152823	     13.71235376	     -7.80406497
      2.72500000	     -9.13971749	     -5.88116279	      5.40359006	     -1.65706274	     -0.03061192	      0.61302272	     27.61196560	      3.58001238	     -2.08124987	    -32.42162464	      4.64420871	     -4.10916886	     14.65455791	     19.55864514	     -5.21592543	      1.30622337	    -65.68786428	    -21.77929317	      1.35165893	     29.16546723	      7.80752006	     13.75585872	     -7.45112300
      2.73000000	     -9.06918798	     -5.88997370	      5.25916533	     -1.65006139	     -0.02936756	      0.61346613	     26.81936084	      3.73352343	     -1.99060462	    -31.92902726	      4.88313599	     -4.03774841	     14.64380305	     20.49478059	     -5.21777808	      1.03646336	    -66.53653734	    -21.36119503	      0.98419134	     29.38691252	      7.72060848	     13.80508086	     -7.10814810
      2.73500000	     -9.00786975	     -5.92544434	      5.09029454	     -1.64308475	     -0.02814954	      0.61398275	     26.02422401	      3.93343759	     -1.84527252	    -31.40378404	      5.09242376	     -4.00379427	     14.58778983	     21.43691200	     -5.26848021	      0.76101113	    -67.30613307	    -21.07358459	      0.53118199	     29.47249491	      7.63659731	     13.87972433	     -6.73825436
      2.74000000	     -8.95523671	     -5.91510977	      4.85401650	     -1.63615207	     -0.02692155	      0.61464329	     25.23345104	      4.13892767	     -1.57901065	    -30.86903026	      5.23323836	     -4.17579541	     14.31518675	     22.36169693	     -5.30842476	      0.38245614	    -67.98613388	    -20.86828292	     -0.13004933	     29.06931457	      7.52940648	     13.90521600	     -6.27051818
      2.74500000	     -8.87703067	     -5.90061169	      4.64660341	     -1.62913609	     -0.02572541	      0.61515045	     24.39142087	      4.29806226	     -1.35338464	    -30.32624166	      5.56834251	     -4.00725881	     13.89155513	     23.24551722	     -5.33083406	      0.02033418	    -68.64498003	    -20.25617719	     -0.60019994	     27.55615948	      7.42198326	     13.93239413	     -5.88262551
      2.75000000	     -8.82839635	     -5.91378387	      4.47750805	     -1.62220010	     -0.02455358	      0.61568714	     23.57640011	      4.47342664	     -1.18037994	    -29.73326830	      5.69324587	     -4.11290003	     13.75596695	     24.15041762	     -5.36927479	     -0.25406869	    -69.13815065	    -20.06177323	     -1.24977319	     27.18751713	      7.34545790	     13.97130113	     -5.50928364
      2.75500000	     -8.74468912	     -5.85689796	      4.24578005	     -1.61523136	     -0.02339641	      0.61625343	     22.71282180	      4.60072584	     -0.87946733	    -29.15638487	      5.97507223	     -4.04486225	     13.41481799	     24.98149440	     -5.36914636	     -0.63900512	    -69.60551139	    -19.40751557	     -1.66326554	     25.58944436	      7.21220359	     13.94666553	     -5.11360635
      2.76000000	     -8.69913572	     -5.81518030	      4.04475233	     -1.60825885	     -0.02226222	      0.61679816	     21.87477317	      4.72345997	     -0.62311111	    -28.53598155	      6.15052124	     -4.08313762	     13.09539650	     25.83846393	     -5.36733997	     -0.94958634	    -69.94141879	    -18.96510219	     -2.08102974	     24.67938966	      7.13473450	     13.92741667	     -4.72726926
      2.76500000	     -8.65875407	     -5.74229647	      3.85673259	     -1.60132813	     -0.02114342	      0.61738326	     21.04073758	      4.81517412	     -0.33606607	    -27.90546715	      6.25849289	     -4.24367263	     12.87245928	     26.67374827	     -5.33148783	     -1.23101710	    -70.14653959	    -18.67145215	     -2.47535480	     24.33693920	      7.05215500	     13.86276918	     -4.36605328
      2.77000000	     -8.59875862	     -5.63826643	      3.63105502	     -1.59441077	     -0.02006432	      0.61800701	     20.18983256	      4.88143231	     -0.01018148	    -27.28966171	      6.40768875	     -4.34736634	     12.55830381	     27.45693370	     -5.28690445	     -1.54347553	    -70.28289949	    -18.21171592	     -2.67281542	     23.88084209	      6.93122111	     13.77001905	     -3.95522503
      2.77500000	     -8.56237125	     -5.54946749	      3.41748778	     -1.58751538	     -0.01906837	      0.61857677	     19.37204553	      4.93567226	      0.24420831	    -26.67560126	      6.53796969	     -4.39413436	     12.32064689	     28.25543796	     -5.24968173	     -1.81442290	    -70.34045131	    -17.77750947	     -2.79576561	     23.69053719	      6.83832474	     13.69243185	     -3.55826585
      2.78000000	     -8.49821947	     -5.42995996	      3.22574087	     -1.58061981	     -0.01808477	      0.61914809	     18.51734303	      4.96174625	      0.55749051	    -26.06346475	      6.70896394	     -4.46942915	     11.85416651	     29.00366277	     -5.17700470	     -2.06723450	    -70.32358099	    -17.28105387	     -2.82473039	     23.36097563	      6.71684203	     13.56993758	     -3.22553620
      2.78500000	     -8.50978988	     -5.24567005	      3.06321598	     -1.57377511	     -0.01725098	      0.61970449	     17.76303554	      4.89289700	      0.82908441	    -25.47701459	      6.86460836	     -4.57459459	     11.71828344	     29.81455709	     -5.00889674	     -2.26665014	    -70.21108917	    -16.89012786	     -2.76596667	     23.41920909	      6.67484788	     13.35962796	     -2.94792399
      2.79000000	     -8.47898603	     -5.07598713	      2.82883198	     -1.56694123	     -0.01642711	      0.62037175	     16.96844300	      4.86970510	      1.20156575	    -24.89346361	      6.97866952	     -4.71805619	     11.48314045	     30.54416851	     -4.91393452	     -2.52235865	    -70.02337926	    -16.44784462	     -2.63657727	     23.48657853	      6.56401528	     13.17453198	     -2.56768735
      2.79500000	     -8.40329647	     -4.93249568	      2.58572820	     -1.56016056	     -0.01564172	      0.62106226	     16.13830906	      4.87720391	      1.57350273	    -24.32755510	      7.09676065	     -4.89023994	     11.00789432	     31.21227129	     -4.86426750	     -2.77032140	    -69.77555880	    -15.98645762	     -2.51054939	     23.49408760	      6.38798450	     13.01617963	     -2.14162250
      2.80000000	     -8.37732522	     -4.74526331	      2.36517715	     -1.55335977	     -0.01497088	      0.62171950	     15.36889348	      4.81680873	      1.92988535	    -23.78288475	      7.24770456	     -5.02339244	     10.57900627	     31.90940353	     -4.75716083	     -2.99852975	    -69.44797732	    -15.54240615	     -2.34635622	     23.46893341	      6.28006056	     12.79779701	     -1.80828621
